<svg width="510" height="118" viewBox="0 0 510 118" fill="none" xmlns="http://www.w3.org/2000/svg">
<g clip-path="url(#clip0_919_5098)">
<path fill-rule="evenodd" clip-rule="evenodd" d="M466.864 32.0161C490.002 31.3723 509.285 50.1083 509.98 73.9097C510.676 97.7104 492.781 118 468.283 118C443.785 118 426.719 100.411 426.019 76.5083C425.321 52.6046 443.627 32.663 466.864 32.0161ZM477.781 73.8335C477.02 68.2518 472.023 64.3475 466.593 65.0903C461.107 65.8416 457.264 71.0454 458.033 76.6841C458.802 82.3228 463.888 86.238 469.363 85.4067C474.783 84.5835 478.542 79.4149 477.781 73.8335Z" fill="white"/>
<path d="M281.101 32.1895C281.997 32.048 284.472 32 285.388 32C296.077 32.0865 306.291 36.4064 313.771 44.0042C319.137 49.3731 322.931 56.095 324.745 63.4478C326.512 70.5361 325.904 82.0589 325.879 89.8372L325.875 117.844C315.35 117.985 304.545 117.876 294.004 117.844L294.028 89.7067C294.03 85.5703 294.062 81.4114 294.029 77.276C293.987 71.9141 293.992 68.2617 288.818 65.4188C283.603 63.7458 277.383 65.8608 276.515 71.5476C275.714 76.7995 276.007 83.1553 276.005 88.5027L276.087 117.844C265.983 118.16 254.175 117.909 244.013 117.844L244.013 89.3616C244.012 82.2058 243.789 71.6346 245.257 64.9493C246.669 58.7024 249.145 52.8415 253.092 47.7836C259.914 39.0193 270.024 33.3905 281.101 32.1895Z" fill="white"/>
<path d="M401.913 0C410.738 0.000132052 417.892 7.15338 417.894 15.9785L417.901 53.3525C417.895 62.119 418.507 79.7603 416.733 87.3604C414.953 94.7073 411.216 101.439 405.917 106.843C398.162 114.738 387.694 117.976 376.656 118C365.287 117.984 354.388 114.344 346.347 106.328C337.55 97.5757 333.981 87.1505 333.999 74.8721C334.089 72.8447 334.198 70.9973 334.47 68.9824C335.848 58.0364 341.611 48.1126 350.445 41.4736C359.388 34.7259 367.765 32.4937 378.001 33.1631V66.0186C377.548 65.9285 377.051 65.8559 376.496 65.8018C370.978 65.2623 365.955 69.712 365.591 75.1689C365.417 77.8823 366.346 80.5514 368.169 82.5723C370.062 84.6827 372.293 85.9021 375.153 85.9971C378.065 86.085 380.884 84.9728 382.949 82.9219C386.72 79.1619 386.116 75.1681 386.116 67.127L386.001 54.0537V14.5889C386.695 6.41079 393.559 0 401.913 0Z" fill="white"/>
<path d="M32.0569 15.9138C32.0337 7.11388 24.8862 0 16.0862 0C7.26084 0 0.105981 7.15352 0.104325 15.9789L0.0973131 53.3525C0.102828 62.119 -0.508296 79.7605 1.26592 87.3605C3.04616 94.7075 6.7831 101.439 12.0822 106.843C19.8368 114.738 30.3051 117.976 41.343 118C52.7117 117.984 63.6107 114.344 71.6511 106.328C80.4485 97.5755 84.018 87.1505 83.9999 74.872C83.9092 72.8445 83.8009 70.997 83.5287 68.982C82.1505 58.036 76.3877 48.113 67.5537 41.474C57.1987 33.6605 49 31.5 40 32.6884V66C40 66 40 66 41.5029 65.802C47.0211 65.2625 52.044 69.7115 52.4074 75.1685C52.5824 77.882 51.6534 80.5515 49.8296 82.5725C47.937 84.683 45.7056 85.902 42.846 85.997C39.9337 86.085 37.1143 84.973 35.0498 82.922C31.2782 79.162 31.8829 75.1685 31.8829 67.1273L32 53.8325C32.0876 41.101 32.0901 28.5429 32.0569 15.9138Z" fill="white"/>
<path d="M194.771 32.0029C205.712 31.8646 216.234 36.2405 223.892 44.1133C237.5 57.955 235.963 71.9845 235.936 89.6289L235.885 117.929C225.408 118 214.477 118.044 204 117.929V91.5342C204.026 85.9354 204.273 81.0521 204 75.1777C203.621 67.02 196.335 62.2303 188.919 66.2891C186.458 67.6363 183.373 71.6573 183.962 75.6807C184.978 82.6162 190.81 85.8947 196 84.8916V117.904C185.304 117.681 176.706 116.084 167.703 108.396C159.178 101.158 153.922 90.7534 153.131 79.5508C152.191 67.493 156.375 56.0676 164.194 46.9893C171.797 38.2207 182.539 32.8421 194.069 32.0303C194.303 32.0212 194.537 32.012 194.771 32.0029Z" fill="white"/>
<path d="M103 43.1478C110.615 35.2756 118.501 31.1478 133 32.1478C139.196 32.5753 149.043 36.8391 158.29 41.5805C158.244 41.633 158.198 41.6859 158.152 41.7387L158.144 41.7484L158.136 41.7582C151.449 49.5217 146.964 58.8841 145.513 69.0219C141.5 67.2022 137.571 65.7249 134.633 65.2836C134.236 65.2183 133.831 65.1756 133.419 65.1586C133.276 65.1517 133.136 65.1478 133 65.1478C132.839 65.1478 132.685 65.1525 132.536 65.1596C132.485 65.1619 132.434 65.1653 132.384 65.1683C132.309 65.1732 132.236 65.1793 132.165 65.1859C127.034 65.6101 123.001 69.9061 123 75.1469V118H92L92.0605 89.6381C92.0337 71.9941 92.0606 54.0872 103 43.1478Z" fill="white"/>
</g>
<defs>
<clipPath id="clip0_919_5098">
<rect width="510" height="118" fill="white"/>
</clipPath>
</defs>
</svg>
